# xmcd CD database file
#
# Track frame offsets:
#	150
#	18671
#	37183
#	53986
#	71996
#	88890
#	108849
#	120514
#	140215
#	159554
#	174833
#	193556
#	207960
#	227532
#	245486
#
# Disc length: 3553 seconds
#
# Revision: 0
# Processed by: cddbd v1.5.1PL2 Copyright (c) Steve Scherf et al.
# Submitted via: CDex 1.51
#
DISCID=d70ddf0f
DTITLE=Various Artist - 30 Merengues Pegaditos
DYEAR=2005
DGENRE=Merengue
TTITLE0=La Makina - Mi Reina
TTITLE1=Johnny Ventura - Pitaste
TTITLE2=Oro Solido - Esta Cache
TTITLE3=Wilfrido Vargas - El Africano
TTITLE4=Oro Solido - La Paleta
TTITLE5=Ilegales con Johnny Ventura - Dame Un Chin
TTITLE6=Sergio Vargas - La Quiero A Morir
TTITLE7=Oro Solido - La Tanga
TTITLE8=Jose Pena Suazo Y La Banda Gorda - Traigo Fuego
TTITLE9=Opalo - Jardin
TTITLE10=Sabor Latino (Cover de Elvis Crespo) - Hora Enamorada
TTITLE11=Sabor Latino (Cover de Juan Luis Guerra) - Las Avispas
TTITLE12=Wilmer B - Dejame Tocar Tu Corazon
TTITLE13=Sabor Latino (Cover de Franco de Vita) - Si La Ves
TTITLE14=Wilmer B - Oye
EXTD=YEAR: 2005
EXTT0=
EXTT1=
EXTT2=
EXTT3=
EXTT4=
EXTT5=
EXTT6=
EXTT7=
EXTT8=
EXTT9=
EXTT10=
EXTT11=
EXTT12=
EXTT13=
EXTT14=
PLAYORDER=
